<svg xmlns:dc="http://purl.org/dc/elements/1.1/" xmlns:cc="http://creativecommons.org/ns#" xmlns:rdf="http://www.w3.org/1999/02/22-rdf-syntax-ns#" xmlns:svg="http://www.w3.org/2000/svg" xmlns="http://www.w3.org/2000/svg" xmlns:sodipodi="http://sodipodi.sourceforge.net/DTD/sodipodi-0.dtd" xmlns:inkscape="http://www.inkscape.org/namespaces/inkscape" width="100" height="100" id="svg2" version="1.1" inkscape:version="0.48.2 r9819" sodipodi:docname="christmas tree.svg">
  <defs id="defs4"/>
  <sodipodi:namedview id="base" pagecolor="#ffffff" bordercolor="#666666" borderopacity="1.0" inkscape:pageopacity="0.0" inkscape:pageshadow="2" inkscape:zoom="5.17" inkscape:cx="50" inkscape:cy="51.299351" inkscape:document-units="px" inkscape:current-layer="layer1" showgrid="true" showguides="true" inkscape:guide-bbox="true" inkscape:window-width="1366" inkscape:window-height="706" inkscape:window-x="-8" inkscape:window-y="-8" inkscape:window-maximized="1">
    <inkscape:grid type="xygrid" id="grid2987" empspacing="5" visible="true" enabled="true" snapvisiblegridlinesonly="true"/>
  </sodipodi:namedview>
  <metadata id="metadata7">
    <rdf:RDF>
      <cc:Work rdf:about="">
        <dc:format>image/svg+xml</dc:format>
        <dc:type rdf:resource="http://purl.org/dc/dcmitype/StillImage"/>
        <dc:title/>
      </cc:Work>
    </rdf:RDF>
  </metadata>
  <g inkscape:label="Layer 1" inkscape:groupmode="layer" id="layer1" transform="translate(0,-952.36217)">
    <path style="fill:#000000;fill-opacity:1;stroke:none" d="m 49.6873,953.03677 -1.12932,4.35218 -4.49087,-0.13869 3.78422,2.41715 -1.51237,4.2333 2.4964,-2.06052 -10.43467,18.07575 c 0.32786,0.50556 0.83774,1.14828 1.62464,1.82276 1.70572,1.46204 4.65809,2.97851 9.78085,2.97851 2.43545,0 6.11856,-1.02237 9.12043,-2.06712 1.20444,-0.41919 2.29223,-0.83628 3.17662,-1.18876 l -11.37906,-19.7136 2.64168,2.04731 -1.64445,-4.18707 3.71157,-2.52942 -4.48426,0.27077 -1.26141,-4.31255 z m 5.61359,22.76474 c 0.33814,0.16438 0.42213,0.84018 0.4755,1.73031 0.0273,0.45512 -0.21997,1.01705 -0.68684,1.01705 -0.46686,0 -0.634,-0.81008 -0.634,-1.26801 0,-0.42267 0.67627,-1.31497 0.84534,-1.47935 z m -10.56675,0.42267 c 0.33814,0.16438 -0.0317,0.15704 0.4755,1.30764 0.18391,0.4172 -0.21997,1.01705 -0.68684,1.01705 -0.46686,0 -0.68164,-0.89034 -0.42267,-1.26801 0.67628,-0.98623 0.46494,-0.8923 0.63401,-1.05668 z m -1.26801,2.95869 2.11335,0 0.033,5.06544 c 0,0 -0.73905,-0.16601 -1.1029,-0.27078 -0.3502,-0.10083 -1.03687,-0.34342 -1.03687,-0.34342 l -0.007,-4.45124 z m 10.56675,0 2.11335,0 0.0132,4.2267 c 0,0 -0.71355,0.22556 -1.06328,0.32361 -0.34973,0.0981 -1.03686,0.26417 -1.03686,0.26417 l -0.0264,-4.81448 z m -16.51055,2.25204 -10.058222,17.42193 8.037332,0 -0.71986,1.21516 c 1.4385,0.1764 3.17621,0.3618 5.04562,0.4953 4.88643,0.349 10.66907,0.2985 13.90849,-0.99721 5.94218,-2.37687 12.47912,-6.85841 14.17265,-8.05054 l -4.99279,-8.65152 c -0.93847,0.3757 -2.12709,0.83031 -3.46061,1.29442 -3.07034,1.06859 -6.78618,2.15958 -9.64876,2.15958 -5.44399,0 -8.83167,-1.65356 -10.82431,-3.36155 -0.60436,-0.51801 -1.08638,-1.04101 -1.45954,-1.52557 z m 19.68057,9.16005 c 0.33814,0.16438 0.2108,0.62884 0.68684,1.73031 0.18088,0.41852 -0.21997,1.01705 -0.68684,1.01705 -0.46686,0 -0.72381,-0.60764 -0.634,-1.05668 0.21133,-1.05667 0.46494,-1.5263 0.634,-1.69068 z m -19.44282,2.11335 c 0.33814,0.16438 0.56268,0.32875 1.06989,1.47935 0.18391,0.4172 -0.21997,1.01044 -0.68684,1.01044 -0.46687,0 -1.31021,-0.44732 -1.01705,-0.79911 1.05667,-1.26801 0.46494,-1.5263 0.634,-1.69068 z m 8.83645,0.0198 c 0.33814,0.16438 0.46229,0.40286 0.67363,1.88221 0.0645,0.45135 -0.20676,0.58777 -0.67363,0.58777 -0.46687,0 -0.85335,-0.63277 -0.59438,-1.01044 0.67627,-0.98623 0.42531,-1.29516 0.59438,-1.45954 z m 22.12413,0.19153 c -1.86159,1.30931 -8.30345,5.70154 -14.39059,8.13626 -3.80508,1.522 -9.64586,1.4715 -14.62174,1.1161 -2.21671,-0.1584 -4.23099,-0.3885 -5.81171,-0.5944 l -3.553073,6.0296 c 1.222114,0.5804 2.696313,1.2644 4.299343,1.9747 4.32471,1.9164 9.60187,4.0139 13.20844,4.7352 5.09155,1.0183 12.45343,0.5169 18.49181,-0.2707 2.33661,-0.3048 4.46869,-0.644 6.21457,-0.9511 l -8.38736,-14.23847 7.9779,0 -3.42759,-5.93719 z m -12.57443,1.05667 2.11335,0 0,3.38136 c 0,0 -0.69785,0.37864 -1.05007,0.55476 -0.35223,0.17611 -1.06328,0.50192 -1.06328,0.50192 l 0,-4.43804 z m -19.05978,1.85579 2.11335,0 0.0396,4.4842 -2.12656,-0.1849 -0.0264,-4.2993 z m 8.4534,0 2.11335,0 0.033,4.7286 c 0,0 -0.71041,0.051 -1.06328,0.066 -0.35288,0.015 -1.05668,0.02 -1.05668,0.02 l -0.0264,-4.81449 z m -3.1304,7.2314 c 0.21134,0.2114 -0.0845,-0.094 0.42267,1.0567 0.18391,0.4172 0.0442,1.902 -0.42267,1.902 -0.46686,0 -0.89297,-0.4676 -0.634,-0.8453 0.67627,-0.9862 0.46494,-1.949 0.634,-2.1134 z m 19.02015,2.7474 c 0.22444,0.5813 0.23855,0.6939 0.84534,1.4793 0.27874,0.3609 -0.37847,0.8454 -0.84534,0.8454 -0.46686,0 -0.89297,-0.679 -0.634,-1.0567 0.67627,-0.9862 0.46494,-1.1036 0.634,-1.268 z m -20.07682,0.8453 2.11335,0 0.0132,6.274 c 0,0 -0.70994,-0.2133 -1.06328,-0.3434 -0.35334,-0.1301 -1.05668,-0.4359 -1.05668,-0.4359 l -0.007,-5.4947 z m 19.02015,2.1134 2.11335,0 0.0198,5.5211 c 0,0 -0.71105,0.101 -1.06328,0.1321 -0.35222,0.031 -1.05007,0.053 -1.05007,0.053 l -0.0198,-5.7061 z m -30.848306,0.2311 -4.596536,7.7996 6.194757,0 -10.533729,16.4445 c 5.934249,-0.1886 21.518174,-0.7765 28.992524,-2.0077 l 0.0924,-0.013 c 8.98902,-1.4981 18.05981,-6.2839 22.40151,-8.8232 l -3.58609,-5.6004 6.2542,0 -1.31424,-2.2322 c -1.86729,0.3372 -4.23042,0.7249 -6.87499,1.0699 -6.11338,0.7974 -13.54495,1.3526 -19.02015,0.2575 -3.89115,-0.7782 -9.17764,-2.9054 -13.54525,-4.8408 -1.675764,-0.7426 -3.20636,-1.4544 -4.464456,-2.054 z m 34.018326,9.979 c 0.33814,0.1644 0.17964,0.3023 0.68684,1.4529 0.18391,0.4172 -0.21997,1.0171 -0.68684,1.0171 -0.46686,0 -0.89297,-0.4677 -0.634,-0.8454 0.67627,-0.9862 0.21133,-1.4837 0.634,-1.6246 z m -1.05667,3.104 2.11335,0 0.0132,3.9889 c 0,0 -0.70334,0.3594 -1.05668,0.5218 -0.35333,0.1623 -1.06328,0.4491 -1.06328,0.4491 l -0.007,-4.9598 z m -13.78961,1.2878 c 0.33814,0.1644 0.17964,0.3089 0.68684,1.4595 0.18391,0.4172 -0.21997,1.0105 -0.68684,1.0105 -0.46687,0 -0.84014,-1.0555 -0.58117,-1.4331 0.67627,-0.9863 0.4121,-0.8725 0.58117,-1.0369 z m 24.25069,0.3897 c -4.3934,2.587 -13.63481,7.4854 -23.0091,9.0477 -8.20888,1.3682 -25.49891,1.941 -30.399215,2.0804 l -2.701125,4.2135 28.74156,0 0,11.9338 8.4534,0 0,-11.9338 28.74156,0 -9.82708,-15.3416 z m -41.104655,0.9245 c 0.338136,0.1644 0.338136,0.4939 0.84534,1.6445 0.183905,0.4172 -0.378474,0.8255 -0.84534,0.8255 -0.466867,0 -1.104312,-0.4478 -0.84534,-0.8255 0.676272,-0.9862 0.676272,-1.4801 0.84534,-1.6445 z m 15.797295,1.7898 2.11335,0 0.0396,4.4843 c 0,0 -0.70883,0.1491 -1.06328,0.2047 -0.35445,0.056 -1.06328,0.1255 -1.06328,0.1255 l -0.0264,-4.8145 z m -16.85397,1.3142 2.11335,0 0.0528,4.4777 c 0,0 -0.713208,0.077 -1.06988,0.099 -0.356674,0.022 -1.069883,0.04 -1.069883,0.04 l -0.02642,-4.6164 z" id="path2990" inkscape:connector-curvature="0"/>
  </g>
</svg>